<svg width="100" height="100" viewBox="0 0 100 100" fill="none" xmlns="http://www.w3.org/2000/svg">
<circle cx="50" cy="50" r="47.5" stroke="url(#paint0_linear_6_29)" stroke-width="5"/>
<path d="M33.6357 41.9091H38.8629V62.3636C38.8535 64.2386 38.4557 65.8532 37.6697 67.2074C36.8838 68.5521 35.7853 69.589 34.3743 70.3182C32.9728 71.0379 31.3393 71.3977 29.4737 71.3977C27.7692 71.3977 26.2351 71.0947 24.8714 70.4886C23.5173 69.8731 22.4425 68.964 21.647 67.7614C20.8516 66.5587 20.4538 65.0625 20.4538 63.2727H25.6953C25.7048 64.0587 25.8752 64.7358 26.2067 65.304C26.5476 65.8722 27.0163 66.3078 27.6129 66.6108C28.2095 66.9138 28.8961 67.0653 29.6726 67.0653C30.5154 67.0653 31.2304 66.8902 31.8175 66.5398C32.4046 66.1799 32.8497 65.6496 33.1527 64.9489C33.4652 64.2481 33.6262 63.3864 33.6357 62.3636V41.9091Z" fill="url(#paint1_linear_6_29)"/>
<path d="M46.5872 71V27.3636H63.2917C66.4451 27.3636 69.0659 27.8608 71.1539 28.8551C73.2562 29.8352 74.8258 31.1776 75.8628 32.8821C76.9139 34.5866 77.4395 36.5185 77.4395 38.6776C77.4395 40.4531 77.0985 41.973 76.4167 43.2372C75.7349 44.4872 74.8187 45.5028 73.6681 46.2841C72.5176 47.0653 71.2321 47.6264 69.8116 47.9673V48.3935C71.3599 48.4787 72.8443 48.9545 74.2647 49.821C75.6994 50.6733 76.8713 51.8807 77.7804 53.4432C78.6895 55.0057 79.144 56.8949 79.144 59.1108C79.144 61.3693 78.5971 63.4006 77.5034 65.2045C76.4096 66.9943 74.7619 68.4077 72.5602 69.4446C70.3585 70.4815 67.5886 71 64.2505 71H46.5872ZM54.492 64.3949H62.9934C65.8627 64.3949 67.9295 63.848 69.1937 62.7543C70.4721 61.6463 71.1113 60.2259 71.1113 58.4929C71.1113 57.2003 70.7917 56.0355 70.1525 54.9986C69.5133 53.9474 68.6042 53.1236 67.4252 52.527C66.2463 51.9162 64.84 51.6108 63.2065 51.6108H54.492V64.3949ZM54.492 45.9219H62.3116C63.6752 45.9219 64.9039 45.6733 65.9977 45.1761C67.0914 44.6648 67.9508 43.9474 68.5758 43.0241C69.215 42.0866 69.5346 40.9787 69.5346 39.7003C69.5346 38.0099 68.938 36.6179 67.7449 35.5241C66.5659 34.4304 64.8116 33.8835 62.4821 33.8835H54.492V45.9219Z" fill="url(#paint2_linear_6_29)"/>
<circle cx="36" cy="33" r="6" fill="url(#paint3_linear_6_29)"/>
<defs>
<linearGradient id="paint0_linear_6_29" x1="43.5" y1="56" x2="8.5" y2="103" gradientUnits="userSpaceOnUse">
<stop stop-color="#2F78E5"/>
<stop offset="1" stop-color="#7694D5"/>
</linearGradient>
<linearGradient id="paint1_linear_6_29" x1="30.5" y1="32" x2="30.5" y2="80" gradientUnits="userSpaceOnUse">
<stop stop-color="#2F78E5"/>
<stop offset="1" stop-color="#1A437F"/>
</linearGradient>
<linearGradient id="paint2_linear_6_29" x1="62" y1="13" x2="62" y2="86" gradientUnits="userSpaceOnUse">
<stop stop-color="#2F78E5"/>
<stop offset="1" stop-color="#1A437F"/>
</linearGradient>
<linearGradient id="paint3_linear_6_29" x1="27" y1="49.8" x2="42" y2="27" gradientUnits="userSpaceOnUse">
<stop stop-color="white"/>
<stop offset="1" stop-color="#4E2DB1"/>
</linearGradient>
</defs>
</svg>
