<svg width="400" height="400" viewBox="0 0 400 400" fill="none" xmlns="http://www.w3.org/2000/svg">
<circle cx="200" cy="200" r="190" stroke="url(#paint0_linear_13_35)" stroke-width="20"/>
<path d="M48.7642 173V118.455H69.2188C73.4091 118.455 76.9248 119.236 79.7657 120.798C82.6243 122.361 84.7817 124.509 86.2376 127.244C87.7113 129.96 88.4482 133.05 88.4482 136.512C88.4482 140.01 87.7113 143.117 86.2376 145.834C84.7639 148.55 82.5888 150.69 79.7124 152.252C76.836 153.797 73.2937 154.57 69.0856 154.57H55.5292V146.446H67.754C70.2042 146.446 72.2106 146.02 73.7731 145.168C75.3356 144.316 76.4897 143.144 77.2355 141.652C77.999 140.161 78.3807 138.447 78.3807 136.512C78.3807 134.577 77.999 132.872 77.2355 131.398C76.4897 129.925 75.3268 128.779 73.7465 127.963C72.184 127.128 70.1687 126.711 67.7007 126.711H58.6453V173H48.7642ZM114.13 173.799C110.028 173.799 106.486 172.947 103.503 171.242C100.538 169.52 98.256 167.087 96.658 163.945C95.06 160.784 94.261 157.064 94.261 152.785C94.261 148.577 95.06 144.884 96.658 141.706C98.2737 138.51 100.529 136.024 103.423 134.248C106.317 132.455 109.717 131.558 113.624 131.558C116.145 131.558 118.524 131.967 120.761 132.783C123.016 133.582 125.005 134.825 126.727 136.512C128.467 138.199 129.834 140.347 130.829 142.957C131.823 145.55 132.32 148.639 132.32 152.226V155.182H98.7887V148.684H123.078C123.061 146.837 122.661 145.195 121.88 143.756C121.099 142.3 120.007 141.155 118.604 140.321C117.219 139.486 115.603 139.069 113.757 139.069C111.786 139.069 110.055 139.548 108.563 140.507C107.072 141.448 105.909 142.691 105.074 144.236C104.257 145.763 103.84 147.441 103.822 149.27V154.942C103.822 157.322 104.257 159.364 105.127 161.068C105.997 162.755 107.214 164.051 108.776 164.957C110.339 165.844 112.168 166.288 114.263 166.288C115.665 166.288 116.935 166.093 118.071 165.702C119.208 165.294 120.193 164.699 121.028 163.918C121.862 163.137 122.492 162.169 122.919 161.015L131.921 162.027C131.353 164.406 130.269 166.484 128.671 168.259C127.091 170.017 125.067 171.384 122.599 172.361C120.131 173.32 117.308 173.799 114.13 173.799ZM140.477 173V132.091H149.825V138.909H150.251C150.997 136.548 152.275 134.728 154.087 133.449C155.915 132.153 158.002 131.505 160.345 131.505C160.878 131.505 161.473 131.532 162.13 131.585C162.805 131.62 163.364 131.683 163.808 131.771V140.64C163.399 140.498 162.751 140.374 161.864 140.267C160.993 140.143 160.15 140.081 159.333 140.081C157.576 140.081 155.995 140.463 154.593 141.226C153.208 141.972 152.116 143.011 151.317 144.342C150.518 145.674 150.118 147.21 150.118 148.95V173H140.477ZM193.131 132.091V139.548H168.948V132.091H193.131ZM174.994 173V128.229C174.994 125.477 175.562 123.186 176.698 121.358C177.852 119.529 179.397 118.162 181.333 117.256C183.268 116.35 185.416 115.898 187.778 115.898C189.447 115.898 190.93 116.031 192.226 116.297C193.522 116.564 194.481 116.803 195.102 117.016L193.185 124.474C192.776 124.349 192.261 124.225 191.64 124.101C191.018 123.959 190.326 123.888 189.562 123.888C187.769 123.888 186.5 124.323 185.754 125.193C185.026 126.045 184.662 127.27 184.662 128.868V173H174.994ZM217.255 173.799C213.153 173.799 209.611 172.947 206.628 171.242C203.663 169.52 201.381 167.087 199.783 163.945C198.185 160.784 197.386 157.064 197.386 152.785C197.386 148.577 198.185 144.884 199.783 141.706C201.399 138.51 203.654 136.024 206.548 134.248C209.442 132.455 212.842 131.558 216.749 131.558C219.27 131.558 221.649 131.967 223.886 132.783C226.141 133.582 228.13 134.825 229.852 136.512C231.592 138.199 232.959 140.347 233.954 142.957C234.948 145.55 235.445 148.639 235.445 152.226V155.182H201.914V148.684H226.203C226.186 146.837 225.786 145.195 225.005 143.756C224.224 142.3 223.132 141.155 221.729 140.321C220.344 139.486 218.728 139.069 216.882 139.069C214.911 139.069 213.18 139.548 211.688 140.507C210.197 141.448 209.034 142.691 208.199 144.236C207.382 145.763 206.965 147.441 206.947 149.27V154.942C206.947 157.322 207.382 159.364 208.252 161.068C209.122 162.755 210.339 164.051 211.901 164.957C213.464 165.844 215.293 166.288 217.388 166.288C218.79 166.288 220.06 166.093 221.196 165.702C222.333 165.294 223.318 164.699 224.153 163.918C224.987 163.137 225.617 162.169 226.044 161.015L235.046 162.027C234.478 164.406 233.394 166.484 231.796 168.259C230.216 170.017 228.192 171.384 225.724 172.361C223.256 173.32 220.433 173.799 217.255 173.799ZM261.446 173.799C257.362 173.799 253.856 172.902 250.926 171.109C248.014 169.316 245.768 166.839 244.188 163.678C242.625 160.5 241.844 156.842 241.844 152.705C241.844 148.55 242.643 144.884 244.241 141.706C245.839 138.51 248.094 136.024 251.006 134.248C253.936 132.455 257.398 131.558 261.393 131.558C264.713 131.558 267.652 132.171 270.209 133.396C272.783 134.603 274.834 136.317 276.361 138.536C277.888 140.738 278.758 143.312 278.971 146.26H269.756C269.383 144.289 268.495 142.647 267.093 141.333C265.708 140.001 263.852 139.335 261.526 139.335C259.555 139.335 257.824 139.868 256.333 140.933C254.841 141.981 253.678 143.49 252.844 145.461C252.027 147.432 251.618 149.793 251.618 152.545C251.618 155.333 252.027 157.73 252.844 159.737C253.66 161.725 254.806 163.261 256.279 164.344C257.771 165.409 259.52 165.942 261.526 165.942C262.947 165.942 264.216 165.676 265.335 165.143C266.471 164.593 267.421 163.803 268.185 162.773C268.948 161.743 269.472 160.491 269.756 159.017H278.971C278.74 161.912 277.888 164.477 276.414 166.714C274.941 168.934 272.934 170.674 270.395 171.935C267.856 173.178 264.873 173.799 261.446 173.799ZM307.316 132.091V139.548H283.798V132.091H307.316ZM289.605 122.29H299.246V160.695C299.246 161.991 299.441 162.986 299.832 163.678C300.24 164.353 300.773 164.815 301.43 165.063C302.087 165.312 302.815 165.436 303.614 165.436C304.217 165.436 304.768 165.392 305.265 165.303C305.78 165.214 306.171 165.134 306.437 165.063L308.062 172.6C307.547 172.778 306.81 172.973 305.851 173.186C304.91 173.4 303.756 173.524 302.389 173.559C299.974 173.63 297.799 173.266 295.863 172.467C293.928 171.651 292.392 170.39 291.256 168.685C290.137 166.981 289.587 164.85 289.605 162.293V122.29ZM332.784 173.799C328.789 173.799 325.327 172.92 322.397 171.162C319.467 169.404 317.195 166.945 315.579 163.785C313.981 160.624 313.182 156.931 313.182 152.705C313.182 148.479 313.981 144.777 315.579 141.599C317.195 138.421 319.467 135.953 322.397 134.195C325.327 132.437 328.789 131.558 332.784 131.558C336.779 131.558 340.242 132.437 343.171 134.195C346.101 135.953 348.365 138.421 349.963 141.599C351.579 144.777 352.386 148.479 352.386 152.705C352.386 156.931 351.579 160.624 349.963 163.785C348.365 166.945 346.101 169.404 343.171 171.162C340.242 172.92 336.779 173.799 332.784 173.799ZM332.837 166.075C335.004 166.075 336.815 165.48 338.271 164.291C339.727 163.083 340.81 161.468 341.52 159.444C342.248 157.419 342.612 155.164 342.612 152.679C342.612 150.175 342.248 147.911 341.52 145.887C340.81 143.845 339.727 142.221 338.271 141.013C336.815 139.806 335.004 139.202 332.837 139.202C330.618 139.202 328.771 139.806 327.298 141.013C325.842 142.221 324.75 143.845 324.022 145.887C323.311 147.911 322.956 150.175 322.956 152.679C322.956 155.164 323.311 157.419 324.022 159.444C324.75 161.468 325.842 163.083 327.298 164.291C328.771 165.48 330.618 166.075 332.837 166.075Z" fill="url(#paint1_linear_13_35)"/>
<path d="M261.905 239H244.292C243.25 233.934 241.427 229.483 238.823 225.648C236.266 221.812 233.141 218.593 229.448 215.989C225.802 213.337 221.754 211.348 217.303 210.023C212.852 208.697 208.212 208.034 203.382 208.034C194.576 208.034 186.597 210.259 179.448 214.71C172.346 219.161 166.687 225.719 162.473 234.384C158.307 243.048 156.223 253.678 156.223 266.273C156.223 278.867 158.307 289.497 162.473 298.162C166.687 306.827 172.346 313.384 179.448 317.835C186.597 322.286 194.576 324.511 203.382 324.511C208.212 324.511 212.852 323.848 217.303 322.523C221.754 321.197 225.802 319.232 229.448 316.628C233.141 313.976 236.266 310.733 238.823 306.898C241.427 303.015 243.25 298.564 244.292 293.545H261.905C260.579 300.979 258.165 307.632 254.661 313.503C251.157 319.374 246.801 324.369 241.593 328.489C236.384 332.561 230.537 335.662 224.05 337.793C217.611 339.923 210.721 340.989 203.382 340.989C190.977 340.989 179.945 337.958 170.286 331.898C160.627 325.837 153.027 317.22 147.488 306.045C141.948 294.871 139.178 281.614 139.178 266.273C139.178 250.932 141.948 237.674 147.488 226.5C153.027 215.326 160.627 206.708 170.286 200.648C179.945 194.587 190.977 191.557 203.382 191.557C210.721 191.557 217.611 192.622 224.05 194.753C230.537 196.884 236.384 200.009 241.593 204.128C246.801 208.2 251.157 213.171 254.661 219.043C258.165 224.866 260.579 231.519 261.905 239Z" fill="url(#paint2_linear_13_35)"/>
<path d="M309 215L214.5 301.5L182 235.5" stroke="#2255A2" stroke-width="10" stroke-linecap="round" stroke-linejoin="round"/>
<defs>
<linearGradient id="paint0_linear_13_35" x1="174" y1="224" x2="34" y2="412" gradientUnits="userSpaceOnUse">
<stop stop-color="#2F78E5"/>
<stop offset="1" stop-color="#7694D5"/>
</linearGradient>
<linearGradient id="paint1_linear_13_35" x1="199.5" y1="100" x2="199.5" y2="191" gradientUnits="userSpaceOnUse">
<stop stop-color="#2F78E5"/>
<stop offset="1" stop-color="#1A437F"/>
</linearGradient>
<linearGradient id="paint2_linear_13_35" x1="200" y1="145" x2="200" y2="387" gradientUnits="userSpaceOnUse">
<stop stop-color="#2F78E5"/>
<stop offset="1" stop-color="#1A437F"/>
</linearGradient>
</defs>
</svg>
