<svg width="152" height="39" viewBox="0 0 152 39" fill="none" xmlns="http://www.w3.org/2000/svg">
<path d="M143.091 15.1055H140.32C140.156 14.3085 139.87 13.6084 139.46 13.005C139.058 12.4017 138.566 11.8952 137.985 11.4855C137.412 11.0684 136.775 10.7555 136.075 10.547C135.374 10.3384 134.644 10.2341 133.885 10.2341C132.499 10.2341 131.244 10.5842 130.119 11.2844C129.002 11.9846 128.112 13.0162 127.449 14.3793C126.794 15.7424 126.466 17.4146 126.466 19.3959C126.466 21.3773 126.794 23.0495 127.449 24.4126C128.112 25.7757 129.002 26.8073 130.119 27.5075C131.244 28.2077 132.499 28.5578 133.885 28.5578C134.644 28.5578 135.374 28.4535 136.075 28.2449C136.775 28.0364 137.412 27.7272 137.985 27.3176C138.566 26.9004 139.058 26.3902 139.46 25.7869C139.87 25.1761 140.156 24.4759 140.32 23.6863H143.091C142.883 24.8558 142.503 25.9023 141.952 26.8259C141.4 27.7496 140.715 28.5354 139.896 29.1834C139.076 29.824 138.156 30.3119 137.136 30.6471C136.123 30.9823 135.039 31.1499 133.885 31.1499C131.933 31.1499 130.198 30.6732 128.678 29.7197C127.159 28.7663 125.963 27.4107 125.092 25.6528C124.22 23.8949 123.784 21.8093 123.784 19.3959C123.784 16.9826 124.22 14.897 125.092 13.1391C125.963 11.3812 127.159 10.0256 128.678 9.07214C130.198 8.11871 131.933 7.642 133.885 7.642C135.039 7.642 136.123 7.80959 137.136 8.14478C138.156 8.47997 139.076 8.97158 139.896 9.61961C140.715 10.2602 141.4 11.0423 141.952 11.9659C142.503 12.8821 142.883 13.9286 143.091 15.1055Z" fill="url(#paint0_linear_17_76)"/>
<path d="M150.5 11.8491L135.634 25.4569L130.521 15.0741" stroke="#2255A2" stroke-width="1.57315" stroke-linecap="round" stroke-linejoin="round"/>
<path d="M3.64875 30.3599V9.59427H10.0467C11.3649 9.59427 12.4937 9.86466 13.4333 10.4054C14.3797 10.9462 15.1063 11.6864 15.6133 12.626C16.1203 13.5656 16.3738 14.637 16.3738 15.8402C16.3738 17.0299 16.1203 18.0945 15.6133 19.0341C15.1063 19.9737 14.3797 20.7172 13.4333 21.2648C12.4937 21.8055 11.3683 22.0759 10.0569 22.0759H4.54102V20.8998H10.0265C11.0945 20.8998 12.007 20.6834 12.7641 20.2508C13.5212 19.8115 14.1025 19.2132 14.5081 18.4561C14.9137 17.6923 15.1165 16.8203 15.1165 15.8402C15.1165 14.8533 14.9137 13.9779 14.5081 13.2141C14.1025 12.4502 13.5178 11.852 12.754 11.4194C11.9969 10.9868 11.0843 10.7704 10.0163 10.7704H4.91618V30.3599H3.64875ZM26.7135 30.6843C25.3075 30.6843 24.084 30.3362 23.043 29.64C22.002 28.9437 21.1976 27.9906 20.6298 26.7806C20.062 25.5707 19.7781 24.1917 19.7781 22.6437C19.7781 21.089 20.062 19.7033 20.6298 18.4866C21.2044 17.2698 21.9919 16.31 22.9923 15.607C23.9927 14.904 25.1351 14.5525 26.4194 14.5525C27.2914 14.5525 28.1161 14.7282 28.8934 15.0797C29.6776 15.4245 30.367 15.9247 30.9619 16.5804C31.5635 17.236 32.0333 18.0269 32.3713 18.953C32.716 19.8791 32.8884 20.92 32.8884 22.0759V22.8465H20.5588V21.7211H31.6514C31.6514 20.5922 31.4215 19.5749 30.9619 18.6691C30.5022 17.7633 29.877 17.0434 29.0861 16.5094C28.2952 15.9754 27.4063 15.7084 26.4194 15.7084C25.3852 15.7084 24.4625 15.999 23.6514 16.5804C22.847 17.1549 22.2082 17.9323 21.735 18.9124C21.2686 19.8926 21.0252 20.9876 21.005 22.1976V22.7046C21.005 24.0024 21.2314 25.1685 21.6843 26.2027C22.144 27.2302 22.7996 28.0447 23.6514 28.6463C24.5031 29.2411 25.5238 29.5386 26.7135 29.5386C27.5652 29.5386 28.2918 29.3966 28.8934 29.1127C29.5018 28.822 29.9986 28.4705 30.3839 28.0582C30.7692 27.6459 31.0599 27.2471 31.2559 26.8618L32.3814 27.318C32.1448 27.8385 31.7764 28.359 31.2762 28.8795C30.7828 29.3932 30.1541 29.8225 29.3903 30.1672C28.6332 30.512 27.7409 30.6843 26.7135 30.6843ZM37.147 30.3599V14.7857H38.3536V17.2191H38.4651C38.8031 16.4215 39.3743 15.7827 40.1787 15.3028C40.983 14.8161 41.899 14.5727 42.9264 14.5727C43.0346 14.5727 43.1428 14.5727 43.2509 14.5727C43.3591 14.5727 43.4605 14.5761 43.5551 14.5829V15.83C43.474 15.8233 43.376 15.8131 43.261 15.7996C43.1529 15.7793 43.0177 15.7692 42.8555 15.7692C41.9902 15.7692 41.2196 15.9551 40.5437 16.3269C39.8745 16.6986 39.3472 17.2124 38.9619 17.8681C38.5766 18.517 38.384 19.2605 38.384 20.0987V30.3599H37.147ZM53.7351 14.7857V15.8909H46.8301V14.7857H53.7351ZM49.1014 30.3599V12.3623C49.1014 11.5782 49.2805 10.909 49.6388 10.3547C49.997 9.80044 50.4668 9.37796 51.0481 9.0873C51.6362 8.79663 52.2683 8.6513 52.9442 8.6513C53.3025 8.6513 53.6067 8.68172 53.8568 8.74256C54.1136 8.79663 54.3367 8.86085 54.526 8.93521L54.161 10.0303C54.0055 9.97619 53.8365 9.92887 53.654 9.88832C53.4782 9.84776 53.2687 9.82748 53.0253 9.82748C52.2412 9.82748 51.5957 10.0674 51.0887 10.5474C50.5817 11.0273 50.3282 11.6965 50.3282 12.555L50.3181 30.3599H49.1014ZM63.0178 30.6843C61.6118 30.6843 60.3883 30.3362 59.3473 29.64C58.3063 28.9437 57.5019 27.9906 56.9341 26.7806C56.3663 25.5707 56.0824 24.1917 56.0824 22.6437C56.0824 21.089 56.3663 19.7033 56.9341 18.4866C57.5087 17.2698 58.2962 16.31 59.2966 15.607C60.297 14.904 61.4394 14.5525 62.7237 14.5525C63.5957 14.5525 64.4204 14.7282 65.1977 15.0797C65.9819 15.4245 66.6713 15.9247 67.2662 16.5804C67.8678 17.236 68.3376 18.0269 68.6756 18.953C69.0203 19.8791 69.1927 20.92 69.1927 22.0759V22.8465H56.8631V21.7211H67.9557C67.9557 20.5922 67.7258 19.5749 67.2662 18.6691C66.8065 17.7633 66.1813 17.0434 65.3904 16.5094C64.5995 15.9754 63.7106 15.7084 62.7237 15.7084C61.6895 15.7084 60.7668 15.999 59.9556 16.5804C59.1513 17.1549 58.5125 17.9323 58.0393 18.9124C57.5729 19.8926 57.3295 20.9876 57.3093 22.1976V22.7046C57.3093 24.0024 57.5357 25.1685 57.9886 26.2027C58.4483 27.2302 59.1039 28.0447 59.9556 28.6463C60.8074 29.2411 61.8281 29.5386 63.0178 29.5386C63.8695 29.5386 64.5961 29.3966 65.1977 29.1127C65.8061 28.822 66.3029 28.4705 66.6882 28.0582C67.0735 27.6459 67.3642 27.2471 67.5602 26.8618L68.6857 27.318C68.4491 27.8385 68.0807 28.359 67.5805 28.8795C67.0871 29.3932 66.4584 29.8225 65.6946 30.1672C64.9375 30.512 64.0452 30.6843 63.0178 30.6843ZM79.2916 30.6843C77.9667 30.6843 76.8006 30.3362 75.7935 29.64C74.7863 28.937 73.9988 27.9771 73.431 26.7604C72.8699 25.5436 72.5894 24.1647 72.5894 22.6235C72.5894 21.0823 72.8733 19.7033 73.4411 18.4866C74.0089 17.2698 74.7964 16.31 75.8036 15.607C76.8108 14.904 77.9701 14.5525 79.2814 14.5525C80.2683 14.5525 81.1674 14.7553 81.9785 15.1608C82.7964 15.5664 83.4724 16.1308 84.0064 16.8541C84.5472 17.5774 84.8919 18.4156 85.0406 19.3687H83.7834C83.5806 18.3142 83.0736 17.4422 82.2624 16.7527C81.458 16.0565 80.4678 15.7084 79.2916 15.7084C78.2371 15.7084 77.2975 16.0058 76.4728 16.6006C75.6481 17.1887 74.9992 18.0033 74.526 19.0442C74.0529 20.0785 73.8163 21.2648 73.8163 22.6032C73.8163 23.9213 74.0461 25.1042 74.5058 26.152C74.9654 27.193 75.6076 28.0177 76.4323 28.626C77.2569 29.2344 78.21 29.5386 79.2916 29.5386C80.0554 29.5386 80.7517 29.3865 81.3803 29.0823C82.0157 28.7781 82.5463 28.3455 82.9722 27.7844C83.3981 27.2234 83.6786 26.5677 83.8138 25.8174H85.0711C84.9223 26.7773 84.5844 27.6222 84.0571 28.3523C83.5299 29.0823 82.8573 29.6535 82.0394 30.0658C81.2214 30.4782 80.3055 30.6843 79.2916 30.6843ZM94.7948 14.7857V15.8909H87.9912V14.7857H94.7948ZM90.2929 11.0544H91.5198V26.6792C91.5198 27.3146 91.6414 27.8351 91.8848 28.2407C92.1349 28.6395 92.4593 28.937 92.8582 29.133C93.2637 29.3223 93.6964 29.4169 94.156 29.4169C94.3791 29.4169 94.5717 29.4 94.734 29.3662C94.9029 29.3324 95.0618 29.2885 95.2105 29.2344L95.5147 30.3599C95.3254 30.4275 95.1159 30.4849 94.8861 30.5322C94.6562 30.5863 94.3858 30.6133 94.0749 30.6133C93.426 30.6133 92.8108 30.468 92.2295 30.1774C91.6549 29.8867 91.1885 29.4642 90.8303 28.9099C90.472 28.3556 90.2929 27.6864 90.2929 26.9023V11.0544ZM105.005 30.6843C103.721 30.6843 102.579 30.3396 101.578 29.6501C100.578 28.9539 99.7902 27.9974 99.2156 26.7806C98.641 25.5639 98.3537 24.1782 98.3537 22.6235C98.3537 21.062 98.641 19.6763 99.2156 18.4663C99.7902 17.2496 100.578 16.2931 101.578 15.5968C102.579 14.9006 103.721 14.5525 105.005 14.5525C106.29 14.5525 107.432 14.9006 108.432 15.5968C109.433 16.2931 110.22 17.2496 110.795 18.4663C111.369 19.683 111.657 21.0687 111.657 22.6235C111.657 24.1782 111.369 25.5639 110.795 26.7806C110.22 27.9974 109.433 28.9539 108.432 29.6501C107.432 30.3396 106.29 30.6843 105.005 30.6843ZM105.005 29.5386C106.094 29.5386 107.043 29.231 107.854 28.6159C108.672 28.0008 109.304 27.1693 109.75 26.1216C110.203 25.0738 110.43 23.9078 110.43 22.6235C110.43 21.3391 110.203 20.1765 109.75 19.1355C109.298 18.0877 108.666 17.2563 107.854 16.6412C107.043 16.0193 106.094 15.7084 105.005 15.7084C103.917 15.7084 102.967 16.0193 102.156 16.6412C101.345 17.2563 100.713 18.0877 100.26 19.1355C99.8071 20.1765 99.5806 21.3391 99.5806 22.6235C99.5806 23.9078 99.8037 25.0738 100.25 26.1216C100.703 27.1693 101.335 28.0008 102.146 28.6159C102.964 29.231 103.917 29.5386 105.005 29.5386Z" fill="url(#paint1_linear_17_76)"/>
<defs>
<linearGradient id="paint0_linear_17_76" x1="133.353" y1="0.837036" x2="133.353" y2="38.837" gradientUnits="userSpaceOnUse">
<stop stop-color="#2F78E5"/>
<stop offset="1" stop-color="#1A437F"/>
</linearGradient>
<linearGradient id="paint1_linear_17_76" x1="57" y1="2.35986" x2="57" y2="37.3599" gradientUnits="userSpaceOnUse">
<stop stop-color="#2F78E5"/>
<stop offset="1" stop-color="#1A437F"/>
</linearGradient>
</defs>
</svg>
